<?xml version="1.0" encoding="UTF-8" standalone="no"?>
<!DOCTYPE svg PUBLIC "-//W3C//DTD SVG 1.1//EN"
 "http://www.w3.org/Graphics/SVG/1.1/DTD/svg11.dtd">
<!-- Generated by graphviz version 2.38.0 (20140413.2041)
 -->
<!-- Title: G Pages: 1 -->
<svg width="316pt" height="553pt"
 viewBox="0.00 0.00 316.00 553.00" xmlns="http://www.w3.org/2000/svg" xmlns:xlink="http://www.w3.org/1999/xlink">
<g id="graph0" class="graph" transform="scale(1 1) rotate(0) translate(4 549)">
<title>G</title>
<polygon fill="white" stroke="none" points="-4,4 -4,-549 312,-549 312,4 -4,4"/>
<!-- 140075812261112 -->
<g id="node1" class="node"><title>140075812261112</title>
<polygon fill="none" stroke="black" points="0,-498.5 0,-544.5 308,-544.5 308,-498.5 0,-498.5"/>
<text text-anchor="middle" x="78" y="-517.8" font-family="Times,serif" font-size="14.00">lstm_1_input: InputLayer</text>
<polyline fill="none" stroke="black" points="156,-498.5 156,-544.5 "/>
<text text-anchor="middle" x="183.5" y="-529.3" font-family="Times,serif" font-size="14.00">input:</text>
<polyline fill="none" stroke="black" points="156,-521.5 211,-521.5 "/>
<text text-anchor="middle" x="183.5" y="-506.3" font-family="Times,serif" font-size="14.00">output:</text>
<polyline fill="none" stroke="black" points="211,-498.5 211,-544.5 "/>
<text text-anchor="middle" x="259.5" y="-529.3" font-family="Times,serif" font-size="14.00">(None, 1, 512)</text>
<polyline fill="none" stroke="black" points="211,-521.5 308,-521.5 "/>
<text text-anchor="middle" x="259.5" y="-506.3" font-family="Times,serif" font-size="14.00">(None, 1, 512)</text>
</g>
<!-- 140075812230816 -->
<g id="node2" class="node"><title>140075812230816</title>
<polygon fill="none" stroke="black" points="29,-415.5 29,-461.5 279,-461.5 279,-415.5 29,-415.5"/>
<text text-anchor="middle" x="78" y="-434.8" font-family="Times,serif" font-size="14.00">lstm_1: LSTM</text>
<polyline fill="none" stroke="black" points="127,-415.5 127,-461.5 "/>
<text text-anchor="middle" x="154.5" y="-446.3" font-family="Times,serif" font-size="14.00">input:</text>
<polyline fill="none" stroke="black" points="127,-438.5 182,-438.5 "/>
<text text-anchor="middle" x="154.5" y="-423.3" font-family="Times,serif" font-size="14.00">output:</text>
<polyline fill="none" stroke="black" points="182,-415.5 182,-461.5 "/>
<text text-anchor="middle" x="230.5" y="-446.3" font-family="Times,serif" font-size="14.00">(None, 1, 512)</text>
<polyline fill="none" stroke="black" points="182,-438.5 279,-438.5 "/>
<text text-anchor="middle" x="230.5" y="-423.3" font-family="Times,serif" font-size="14.00">(None, 1, 128)</text>
</g>
<!-- 140075812261112&#45;&gt;140075812230816 -->
<g id="edge1" class="edge"><title>140075812261112&#45;&gt;140075812230816</title>
<path fill="none" stroke="black" d="M154,-498.366C154,-490.152 154,-480.658 154,-471.725"/>
<polygon fill="black" stroke="black" points="157.5,-471.607 154,-461.607 150.5,-471.607 157.5,-471.607"/>
</g>
<!-- 140076717895128 -->
<g id="node3" class="node"><title>140076717895128</title>
<polygon fill="none" stroke="black" points="15.5,-332.5 15.5,-378.5 292.5,-378.5 292.5,-332.5 15.5,-332.5"/>
<text text-anchor="middle" x="78" y="-351.8" font-family="Times,serif" font-size="14.00">dropout_3: Dropout</text>
<polyline fill="none" stroke="black" points="140.5,-332.5 140.5,-378.5 "/>
<text text-anchor="middle" x="168" y="-363.3" font-family="Times,serif" font-size="14.00">input:</text>
<polyline fill="none" stroke="black" points="140.5,-355.5 195.5,-355.5 "/>
<text text-anchor="middle" x="168" y="-340.3" font-family="Times,serif" font-size="14.00">output:</text>
<polyline fill="none" stroke="black" points="195.5,-332.5 195.5,-378.5 "/>
<text text-anchor="middle" x="244" y="-363.3" font-family="Times,serif" font-size="14.00">(None, 1, 128)</text>
<polyline fill="none" stroke="black" points="195.5,-355.5 292.5,-355.5 "/>
<text text-anchor="middle" x="244" y="-340.3" font-family="Times,serif" font-size="14.00">(None, 1, 128)</text>
</g>
<!-- 140075812230816&#45;&gt;140076717895128 -->
<g id="edge2" class="edge"><title>140075812230816&#45;&gt;140076717895128</title>
<path fill="none" stroke="black" d="M154,-415.366C154,-407.152 154,-397.658 154,-388.725"/>
<polygon fill="black" stroke="black" points="157.5,-388.607 154,-378.607 150.5,-388.607 157.5,-388.607"/>
</g>
<!-- 140076717895184 -->
<g id="node4" class="node"><title>140076717895184</title>
<polygon fill="none" stroke="black" points="29,-249.5 29,-295.5 279,-295.5 279,-249.5 29,-249.5"/>
<text text-anchor="middle" x="78" y="-268.8" font-family="Times,serif" font-size="14.00">lstm_2: LSTM</text>
<polyline fill="none" stroke="black" points="127,-249.5 127,-295.5 "/>
<text text-anchor="middle" x="154.5" y="-280.3" font-family="Times,serif" font-size="14.00">input:</text>
<polyline fill="none" stroke="black" points="127,-272.5 182,-272.5 "/>
<text text-anchor="middle" x="154.5" y="-257.3" font-family="Times,serif" font-size="14.00">output:</text>
<polyline fill="none" stroke="black" points="182,-249.5 182,-295.5 "/>
<text text-anchor="middle" x="230.5" y="-280.3" font-family="Times,serif" font-size="14.00">(None, 1, 128)</text>
<polyline fill="none" stroke="black" points="182,-272.5 279,-272.5 "/>
<text text-anchor="middle" x="230.5" y="-257.3" font-family="Times,serif" font-size="14.00">(None, 1, 64)</text>
</g>
<!-- 140076717895128&#45;&gt;140076717895184 -->
<g id="edge3" class="edge"><title>140076717895128&#45;&gt;140076717895184</title>
<path fill="none" stroke="black" d="M154,-332.366C154,-324.152 154,-314.658 154,-305.725"/>
<polygon fill="black" stroke="black" points="157.5,-305.607 154,-295.607 150.5,-305.607 157.5,-305.607"/>
</g>
<!-- 140076717894736 -->
<g id="node5" class="node"><title>140076717894736</title>
<polygon fill="none" stroke="black" points="19,-166.5 19,-212.5 289,-212.5 289,-166.5 19,-166.5"/>
<text text-anchor="middle" x="81.5" y="-185.8" font-family="Times,serif" font-size="14.00">dropout_4: Dropout</text>
<polyline fill="none" stroke="black" points="144,-166.5 144,-212.5 "/>
<text text-anchor="middle" x="171.5" y="-197.3" font-family="Times,serif" font-size="14.00">input:</text>
<polyline fill="none" stroke="black" points="144,-189.5 199,-189.5 "/>
<text text-anchor="middle" x="171.5" y="-174.3" font-family="Times,serif" font-size="14.00">output:</text>
<polyline fill="none" stroke="black" points="199,-166.5 199,-212.5 "/>
<text text-anchor="middle" x="244" y="-197.3" font-family="Times,serif" font-size="14.00">(None, 1, 64)</text>
<polyline fill="none" stroke="black" points="199,-189.5 289,-189.5 "/>
<text text-anchor="middle" x="244" y="-174.3" font-family="Times,serif" font-size="14.00">(None, 1, 64)</text>
</g>
<!-- 140076717895184&#45;&gt;140076717894736 -->
<g id="edge4" class="edge"><title>140076717895184&#45;&gt;140076717894736</title>
<path fill="none" stroke="black" d="M154,-249.366C154,-241.152 154,-231.658 154,-222.725"/>
<polygon fill="black" stroke="black" points="157.5,-222.607 154,-212.607 150.5,-222.607 157.5,-222.607"/>
</g>
<!-- 140076716740056 -->
<g id="node6" class="node"><title>140076716740056</title>
<polygon fill="none" stroke="black" points="26.5,-83.5 26.5,-129.5 281.5,-129.5 281.5,-83.5 26.5,-83.5"/>
<text text-anchor="middle" x="81.5" y="-102.8" font-family="Times,serif" font-size="14.00">flatten_2: Flatten</text>
<polyline fill="none" stroke="black" points="136.5,-83.5 136.5,-129.5 "/>
<text text-anchor="middle" x="164" y="-114.3" font-family="Times,serif" font-size="14.00">input:</text>
<polyline fill="none" stroke="black" points="136.5,-106.5 191.5,-106.5 "/>
<text text-anchor="middle" x="164" y="-91.3" font-family="Times,serif" font-size="14.00">output:</text>
<polyline fill="none" stroke="black" points="191.5,-83.5 191.5,-129.5 "/>
<text text-anchor="middle" x="236.5" y="-114.3" font-family="Times,serif" font-size="14.00">(None, 1, 64)</text>
<polyline fill="none" stroke="black" points="191.5,-106.5 281.5,-106.5 "/>
<text text-anchor="middle" x="236.5" y="-91.3" font-family="Times,serif" font-size="14.00">(None, 64)</text>
</g>
<!-- 140076717894736&#45;&gt;140076716740056 -->
<g id="edge5" class="edge"><title>140076717894736&#45;&gt;140076716740056</title>
<path fill="none" stroke="black" d="M154,-166.366C154,-158.152 154,-148.658 154,-139.725"/>
<polygon fill="black" stroke="black" points="157.5,-139.607 154,-129.607 150.5,-139.607 157.5,-139.607"/>
</g>
<!-- 140075811942920 -->
<g id="node7" class="node"><title>140075811942920</title>
<polygon fill="none" stroke="black" points="37.5,-0.5 37.5,-46.5 270.5,-46.5 270.5,-0.5 37.5,-0.5"/>
<text text-anchor="middle" x="88.5" y="-19.8" font-family="Times,serif" font-size="14.00">dense_3: Dense</text>
<polyline fill="none" stroke="black" points="139.5,-0.5 139.5,-46.5 "/>
<text text-anchor="middle" x="167" y="-31.3" font-family="Times,serif" font-size="14.00">input:</text>
<polyline fill="none" stroke="black" points="139.5,-23.5 194.5,-23.5 "/>
<text text-anchor="middle" x="167" y="-8.3" font-family="Times,serif" font-size="14.00">output:</text>
<polyline fill="none" stroke="black" points="194.5,-0.5 194.5,-46.5 "/>
<text text-anchor="middle" x="232.5" y="-31.3" font-family="Times,serif" font-size="14.00">(None, 64)</text>
<polyline fill="none" stroke="black" points="194.5,-23.5 270.5,-23.5 "/>
<text text-anchor="middle" x="232.5" y="-8.3" font-family="Times,serif" font-size="14.00">(None, 7)</text>
</g>
<!-- 140076716740056&#45;&gt;140075811942920 -->
<g id="edge6" class="edge"><title>140076716740056&#45;&gt;140075811942920</title>
<path fill="none" stroke="black" d="M154,-83.3664C154,-75.1516 154,-65.6579 154,-56.7252"/>
<polygon fill="black" stroke="black" points="157.5,-56.6068 154,-46.6068 150.5,-56.6069 157.5,-56.6068"/>
</g>
</g>
</svg>
