<?xml version="1.0" encoding="UTF-8" standalone="no"?>
<!DOCTYPE svg PUBLIC "-//W3C//DTD SVG 1.1//EN"
 "http://www.w3.org/Graphics/SVG/1.1/DTD/svg11.dtd">
<!-- Generated by graphviz version 2.38.0 (20140413.2041)
 -->
<!-- Title: G Pages: 1 -->
<svg width="227pt" height="1651pt"
 viewBox="0.00 0.00 227.00 1651.00" xmlns="http://www.w3.org/2000/svg" xmlns:xlink="http://www.w3.org/1999/xlink">
<g id="graph0" class="graph" transform="scale(1 1) rotate(0) translate(4 1647)">
<title>G</title>
<polygon fill="white" stroke="none" points="-4,4 -4,-1647 223,-1647 223,4 -4,4"/>
<!-- 140076071305344 -->
<g id="node1" class="node"><title>140076071305344</title>
<polygon fill="none" stroke="black" points="0,-1606.5 0,-1642.5 219,-1642.5 219,-1606.5 0,-1606.5"/>
<text text-anchor="middle" x="109.5" y="-1620.8" font-family="Times,serif" font-size="14.00">zero_padding2d_1_input: InputLayer</text>
</g>
<!-- 140076890924312 -->
<g id="node2" class="node"><title>140076890924312</title>
<polygon fill="none" stroke="black" points="4,-1533.5 4,-1569.5 215,-1569.5 215,-1533.5 4,-1533.5"/>
<text text-anchor="middle" x="109.5" y="-1547.8" font-family="Times,serif" font-size="14.00">zero_padding2d_1: ZeroPadding2D</text>
</g>
<!-- 140076071305344&#45;&gt;140076890924312 -->
<g id="edge1" class="edge"><title>140076071305344&#45;&gt;140076890924312</title>
<path fill="none" stroke="black" d="M109.5,-1606.31C109.5,-1598.29 109.5,-1588.55 109.5,-1579.57"/>
<polygon fill="black" stroke="black" points="113,-1579.53 109.5,-1569.53 106,-1579.53 113,-1579.53"/>
</g>
<!-- 140076395050544 -->
<g id="node3" class="node"><title>140076395050544</title>
<polygon fill="none" stroke="black" points="48,-1460.5 48,-1496.5 171,-1496.5 171,-1460.5 48,-1460.5"/>
<text text-anchor="middle" x="109.5" y="-1474.8" font-family="Times,serif" font-size="14.00">conv2d_1: Conv2D</text>
</g>
<!-- 140076890924312&#45;&gt;140076395050544 -->
<g id="edge2" class="edge"><title>140076890924312&#45;&gt;140076395050544</title>
<path fill="none" stroke="black" d="M109.5,-1533.31C109.5,-1525.29 109.5,-1515.55 109.5,-1506.57"/>
<polygon fill="black" stroke="black" points="113,-1506.53 109.5,-1496.53 106,-1506.53 113,-1506.53"/>
</g>
<!-- 140076891011560 -->
<g id="node4" class="node"><title>140076891011560</title>
<polygon fill="none" stroke="black" points="4,-1387.5 4,-1423.5 215,-1423.5 215,-1387.5 4,-1387.5"/>
<text text-anchor="middle" x="109.5" y="-1401.8" font-family="Times,serif" font-size="14.00">zero_padding2d_2: ZeroPadding2D</text>
</g>
<!-- 140076395050544&#45;&gt;140076891011560 -->
<g id="edge3" class="edge"><title>140076395050544&#45;&gt;140076891011560</title>
<path fill="none" stroke="black" d="M109.5,-1460.31C109.5,-1452.29 109.5,-1442.55 109.5,-1433.57"/>
<polygon fill="black" stroke="black" points="113,-1433.53 109.5,-1423.53 106,-1433.53 113,-1433.53"/>
</g>
<!-- 140075823940216 -->
<g id="node5" class="node"><title>140075823940216</title>
<polygon fill="none" stroke="black" points="48,-1314.5 48,-1350.5 171,-1350.5 171,-1314.5 48,-1314.5"/>
<text text-anchor="middle" x="109.5" y="-1328.8" font-family="Times,serif" font-size="14.00">conv2d_2: Conv2D</text>
</g>
<!-- 140076891011560&#45;&gt;140075823940216 -->
<g id="edge4" class="edge"><title>140076891011560&#45;&gt;140075823940216</title>
<path fill="none" stroke="black" d="M109.5,-1387.31C109.5,-1379.29 109.5,-1369.55 109.5,-1360.57"/>
<polygon fill="black" stroke="black" points="113,-1360.53 109.5,-1350.53 106,-1360.53 113,-1360.53"/>
</g>
<!-- 140075823976400 -->
<g id="node6" class="node"><title>140075823976400</title>
<polygon fill="none" stroke="black" points="6,-1241.5 6,-1277.5 213,-1277.5 213,-1241.5 6,-1241.5"/>
<text text-anchor="middle" x="109.5" y="-1255.8" font-family="Times,serif" font-size="14.00">max_pooling2d_1: MaxPooling2D</text>
</g>
<!-- 140075823940216&#45;&gt;140075823976400 -->
<g id="edge5" class="edge"><title>140075823940216&#45;&gt;140075823976400</title>
<path fill="none" stroke="black" d="M109.5,-1314.31C109.5,-1306.29 109.5,-1296.55 109.5,-1287.57"/>
<polygon fill="black" stroke="black" points="113,-1287.53 109.5,-1277.53 106,-1287.53 113,-1287.53"/>
</g>
<!-- 140075821266648 -->
<g id="node7" class="node"><title>140075821266648</title>
<polygon fill="none" stroke="black" points="4,-1168.5 4,-1204.5 215,-1204.5 215,-1168.5 4,-1168.5"/>
<text text-anchor="middle" x="109.5" y="-1182.8" font-family="Times,serif" font-size="14.00">zero_padding2d_3: ZeroPadding2D</text>
</g>
<!-- 140075823976400&#45;&gt;140075821266648 -->
<g id="edge6" class="edge"><title>140075823976400&#45;&gt;140075821266648</title>
<path fill="none" stroke="black" d="M109.5,-1241.31C109.5,-1233.29 109.5,-1223.55 109.5,-1214.57"/>
<polygon fill="black" stroke="black" points="113,-1214.53 109.5,-1204.53 106,-1214.53 113,-1214.53"/>
</g>
<!-- 140075821268496 -->
<g id="node8" class="node"><title>140075821268496</title>
<polygon fill="none" stroke="black" points="48,-1095.5 48,-1131.5 171,-1131.5 171,-1095.5 48,-1095.5"/>
<text text-anchor="middle" x="109.5" y="-1109.8" font-family="Times,serif" font-size="14.00">conv2d_3: Conv2D</text>
</g>
<!-- 140075821266648&#45;&gt;140075821268496 -->
<g id="edge7" class="edge"><title>140075821266648&#45;&gt;140075821268496</title>
<path fill="none" stroke="black" d="M109.5,-1168.31C109.5,-1160.29 109.5,-1150.55 109.5,-1141.57"/>
<polygon fill="black" stroke="black" points="113,-1141.53 109.5,-1131.53 106,-1141.53 113,-1141.53"/>
</g>
<!-- 140076890925152 -->
<g id="node9" class="node"><title>140076890925152</title>
<polygon fill="none" stroke="black" points="4,-1022.5 4,-1058.5 215,-1058.5 215,-1022.5 4,-1022.5"/>
<text text-anchor="middle" x="109.5" y="-1036.8" font-family="Times,serif" font-size="14.00">zero_padding2d_4: ZeroPadding2D</text>
</g>
<!-- 140075821268496&#45;&gt;140076890925152 -->
<g id="edge8" class="edge"><title>140075821268496&#45;&gt;140076890925152</title>
<path fill="none" stroke="black" d="M109.5,-1095.31C109.5,-1087.29 109.5,-1077.55 109.5,-1068.57"/>
<polygon fill="black" stroke="black" points="113,-1068.53 109.5,-1058.53 106,-1068.53 113,-1068.53"/>
</g>
<!-- 140075821081320 -->
<g id="node10" class="node"><title>140075821081320</title>
<polygon fill="none" stroke="black" points="48,-949.5 48,-985.5 171,-985.5 171,-949.5 48,-949.5"/>
<text text-anchor="middle" x="109.5" y="-963.8" font-family="Times,serif" font-size="14.00">conv2d_4: Conv2D</text>
</g>
<!-- 140076890925152&#45;&gt;140075821081320 -->
<g id="edge9" class="edge"><title>140076890925152&#45;&gt;140075821081320</title>
<path fill="none" stroke="black" d="M109.5,-1022.31C109.5,-1014.29 109.5,-1004.55 109.5,-995.569"/>
<polygon fill="black" stroke="black" points="113,-995.529 109.5,-985.529 106,-995.529 113,-995.529"/>
</g>
<!-- 140076891362752 -->
<g id="node11" class="node"><title>140076891362752</title>
<polygon fill="none" stroke="black" points="6,-876.5 6,-912.5 213,-912.5 213,-876.5 6,-876.5"/>
<text text-anchor="middle" x="109.5" y="-890.8" font-family="Times,serif" font-size="14.00">max_pooling2d_2: MaxPooling2D</text>
</g>
<!-- 140075821081320&#45;&gt;140076891362752 -->
<g id="edge10" class="edge"><title>140075821081320&#45;&gt;140076891362752</title>
<path fill="none" stroke="black" d="M109.5,-949.313C109.5,-941.289 109.5,-931.547 109.5,-922.569"/>
<polygon fill="black" stroke="black" points="113,-922.529 109.5,-912.529 106,-922.529 113,-922.529"/>
</g>
<!-- 140075820728104 -->
<g id="node12" class="node"><title>140075820728104</title>
<polygon fill="none" stroke="black" points="4,-803.5 4,-839.5 215,-839.5 215,-803.5 4,-803.5"/>
<text text-anchor="middle" x="109.5" y="-817.8" font-family="Times,serif" font-size="14.00">zero_padding2d_5: ZeroPadding2D</text>
</g>
<!-- 140076891362752&#45;&gt;140075820728104 -->
<g id="edge11" class="edge"><title>140076891362752&#45;&gt;140075820728104</title>
<path fill="none" stroke="black" d="M109.5,-876.313C109.5,-868.289 109.5,-858.547 109.5,-849.569"/>
<polygon fill="black" stroke="black" points="113,-849.529 109.5,-839.529 106,-849.529 113,-849.529"/>
</g>
<!-- 140075820887400 -->
<g id="node13" class="node"><title>140075820887400</title>
<polygon fill="none" stroke="black" points="48,-730.5 48,-766.5 171,-766.5 171,-730.5 48,-730.5"/>
<text text-anchor="middle" x="109.5" y="-744.8" font-family="Times,serif" font-size="14.00">conv2d_5: Conv2D</text>
</g>
<!-- 140075820728104&#45;&gt;140075820887400 -->
<g id="edge12" class="edge"><title>140075820728104&#45;&gt;140075820887400</title>
<path fill="none" stroke="black" d="M109.5,-803.313C109.5,-795.289 109.5,-785.547 109.5,-776.569"/>
<polygon fill="black" stroke="black" points="113,-776.529 109.5,-766.529 106,-776.529 113,-776.529"/>
</g>
<!-- 140075820725136 -->
<g id="node14" class="node"><title>140075820725136</title>
<polygon fill="none" stroke="black" points="4,-657.5 4,-693.5 215,-693.5 215,-657.5 4,-657.5"/>
<text text-anchor="middle" x="109.5" y="-671.8" font-family="Times,serif" font-size="14.00">zero_padding2d_6: ZeroPadding2D</text>
</g>
<!-- 140075820887400&#45;&gt;140075820725136 -->
<g id="edge13" class="edge"><title>140075820887400&#45;&gt;140075820725136</title>
<path fill="none" stroke="black" d="M109.5,-730.313C109.5,-722.289 109.5,-712.547 109.5,-703.569"/>
<polygon fill="black" stroke="black" points="113,-703.529 109.5,-693.529 106,-703.529 113,-703.529"/>
</g>
<!-- 140075820427752 -->
<g id="node15" class="node"><title>140075820427752</title>
<polygon fill="none" stroke="black" points="48,-584.5 48,-620.5 171,-620.5 171,-584.5 48,-584.5"/>
<text text-anchor="middle" x="109.5" y="-598.8" font-family="Times,serif" font-size="14.00">conv2d_6: Conv2D</text>
</g>
<!-- 140075820725136&#45;&gt;140075820427752 -->
<g id="edge14" class="edge"><title>140075820725136&#45;&gt;140075820427752</title>
<path fill="none" stroke="black" d="M109.5,-657.313C109.5,-649.289 109.5,-639.547 109.5,-630.569"/>
<polygon fill="black" stroke="black" points="113,-630.529 109.5,-620.529 106,-630.529 113,-630.529"/>
</g>
<!-- 140075820239616 -->
<g id="node16" class="node"><title>140075820239616</title>
<polygon fill="none" stroke="black" points="4,-511.5 4,-547.5 215,-547.5 215,-511.5 4,-511.5"/>
<text text-anchor="middle" x="109.5" y="-525.8" font-family="Times,serif" font-size="14.00">zero_padding2d_7: ZeroPadding2D</text>
</g>
<!-- 140075820427752&#45;&gt;140075820239616 -->
<g id="edge15" class="edge"><title>140075820427752&#45;&gt;140075820239616</title>
<path fill="none" stroke="black" d="M109.5,-584.313C109.5,-576.289 109.5,-566.547 109.5,-557.569"/>
<polygon fill="black" stroke="black" points="113,-557.529 109.5,-547.529 106,-557.529 113,-557.529"/>
</g>
<!-- 140075819752696 -->
<g id="node17" class="node"><title>140075819752696</title>
<polygon fill="none" stroke="black" points="48,-438.5 48,-474.5 171,-474.5 171,-438.5 48,-438.5"/>
<text text-anchor="middle" x="109.5" y="-452.8" font-family="Times,serif" font-size="14.00">conv2d_7: Conv2D</text>
</g>
<!-- 140075820239616&#45;&gt;140075819752696 -->
<g id="edge16" class="edge"><title>140075820239616&#45;&gt;140075819752696</title>
<path fill="none" stroke="black" d="M109.5,-511.313C109.5,-503.289 109.5,-493.547 109.5,-484.569"/>
<polygon fill="black" stroke="black" points="113,-484.529 109.5,-474.529 106,-484.529 113,-484.529"/>
</g>
<!-- 140075819764760 -->
<g id="node18" class="node"><title>140075819764760</title>
<polygon fill="none" stroke="black" points="6,-365.5 6,-401.5 213,-401.5 213,-365.5 6,-365.5"/>
<text text-anchor="middle" x="109.5" y="-379.8" font-family="Times,serif" font-size="14.00">max_pooling2d_3: MaxPooling2D</text>
</g>
<!-- 140075819752696&#45;&gt;140075819764760 -->
<g id="edge17" class="edge"><title>140075819752696&#45;&gt;140075819764760</title>
<path fill="none" stroke="black" d="M109.5,-438.313C109.5,-430.289 109.5,-420.547 109.5,-411.569"/>
<polygon fill="black" stroke="black" points="113,-411.529 109.5,-401.529 106,-411.529 113,-411.529"/>
</g>
<!-- 140075819589760 -->
<g id="node19" class="node"><title>140075819589760</title>
<polygon fill="none" stroke="black" points="54.5,-292.5 54.5,-328.5 164.5,-328.5 164.5,-292.5 54.5,-292.5"/>
<text text-anchor="middle" x="109.5" y="-306.8" font-family="Times,serif" font-size="14.00">flatten_1: Flatten</text>
</g>
<!-- 140075819764760&#45;&gt;140075819589760 -->
<g id="edge18" class="edge"><title>140075819764760&#45;&gt;140075819589760</title>
<path fill="none" stroke="black" d="M109.5,-365.313C109.5,-357.289 109.5,-347.547 109.5,-338.569"/>
<polygon fill="black" stroke="black" points="113,-338.529 109.5,-328.529 106,-338.529 113,-338.529"/>
</g>
<!-- 140075819571072 -->
<g id="node20" class="node"><title>140075819571072</title>
<polygon fill="none" stroke="black" points="58.5,-219.5 58.5,-255.5 160.5,-255.5 160.5,-219.5 58.5,-219.5"/>
<text text-anchor="middle" x="109.5" y="-233.8" font-family="Times,serif" font-size="14.00">dense_1: Dense</text>
</g>
<!-- 140075819589760&#45;&gt;140075819571072 -->
<g id="edge19" class="edge"><title>140075819589760&#45;&gt;140075819571072</title>
<path fill="none" stroke="black" d="M109.5,-292.313C109.5,-284.289 109.5,-274.547 109.5,-265.569"/>
<polygon fill="black" stroke="black" points="113,-265.529 109.5,-255.529 106,-265.529 113,-265.529"/>
</g>
<!-- 140075819559400 -->
<g id="node21" class="node"><title>140075819559400</title>
<polygon fill="none" stroke="black" points="47,-146.5 47,-182.5 172,-182.5 172,-146.5 47,-146.5"/>
<text text-anchor="middle" x="109.5" y="-160.8" font-family="Times,serif" font-size="14.00">dropout_1: Dropout</text>
</g>
<!-- 140075819571072&#45;&gt;140075819559400 -->
<g id="edge20" class="edge"><title>140075819571072&#45;&gt;140075819559400</title>
<path fill="none" stroke="black" d="M109.5,-219.313C109.5,-211.289 109.5,-201.547 109.5,-192.569"/>
<polygon fill="black" stroke="black" points="113,-192.529 109.5,-182.529 106,-192.529 113,-192.529"/>
</g>
<!-- 140075812599120 -->
<g id="node22" class="node"><title>140075812599120</title>
<polygon fill="none" stroke="black" points="58.5,-73.5 58.5,-109.5 160.5,-109.5 160.5,-73.5 58.5,-73.5"/>
<text text-anchor="middle" x="109.5" y="-87.8" font-family="Times,serif" font-size="14.00">dense_2: Dense</text>
</g>
<!-- 140075819559400&#45;&gt;140075812599120 -->
<g id="edge21" class="edge"><title>140075819559400&#45;&gt;140075812599120</title>
<path fill="none" stroke="black" d="M109.5,-146.313C109.5,-138.289 109.5,-128.547 109.5,-119.569"/>
<polygon fill="black" stroke="black" points="113,-119.529 109.5,-109.529 106,-119.529 113,-119.529"/>
</g>
<!-- 140075812588344 -->
<g id="node23" class="node"><title>140075812588344</title>
<polygon fill="none" stroke="black" points="47,-0.5 47,-36.5 172,-36.5 172,-0.5 47,-0.5"/>
<text text-anchor="middle" x="109.5" y="-14.8" font-family="Times,serif" font-size="14.00">dropout_2: Dropout</text>
</g>
<!-- 140075812599120&#45;&gt;140075812588344 -->
<g id="edge22" class="edge"><title>140075812599120&#45;&gt;140075812588344</title>
<path fill="none" stroke="black" d="M109.5,-73.3129C109.5,-65.2895 109.5,-55.5475 109.5,-46.5691"/>
<polygon fill="black" stroke="black" points="113,-46.5288 109.5,-36.5288 106,-46.5289 113,-46.5288"/>
</g>
</g>
</svg>
